<mxfile host="app.diagrams.net" agent="Mozilla/5.0 (Macintosh; Intel Mac OS X 10_15_7) AppleWebKit/537.36 (KHTML, like Gecko) Chrome/125.0.0.0 Safari/537.36" version="24.7.14">
  <diagram name="Page-1" id="E5owYUaEd-9mKCyrUisl">
    <mxGraphModel dx="1247" dy="662" grid="1" gridSize="10" guides="1" tooltips="1" connect="1" arrows="1" fold="1" page="1" pageScale="1" pageWidth="850" pageHeight="1100" math="0" shadow="0">
      <root>
        <mxCell id="0" />
        <mxCell id="1" parent="0" />
        <mxCell id="p_C5OVu5sG7Zl0YqylLV-20" value="" style="rounded=0;whiteSpace=wrap;html=1;" parent="1" vertex="1">
          <mxGeometry x="240" y="610" width="400" height="230" as="geometry" />
        </mxCell>
        <mxCell id="p_C5OVu5sG7Zl0YqylLV-6" style="edgeStyle=none;rounded=0;orthogonalLoop=1;jettySize=auto;html=1;exitX=1;exitY=0.5;exitDx=0;exitDy=0;entryX=0;entryY=0.5;entryDx=0;entryDy=0;" parent="1" source="1xhdogJnt5Gqf_VvMB8D-4" target="1xhdogJnt5Gqf_VvMB8D-19" edge="1">
          <mxGeometry relative="1" as="geometry" />
        </mxCell>
        <mxCell id="p_C5OVu5sG7Zl0YqylLV-41" style="edgeStyle=none;rounded=0;orthogonalLoop=1;jettySize=auto;html=1;exitX=1;exitY=0.5;exitDx=0;exitDy=0;entryX=0;entryY=0;entryDx=0;entryDy=0;" parent="1" source="1xhdogJnt5Gqf_VvMB8D-4" target="1xhdogJnt5Gqf_VvMB8D-48" edge="1">
          <mxGeometry relative="1" as="geometry">
            <mxPoint x="340" y="560" as="targetPoint" />
          </mxGeometry>
        </mxCell>
        <mxCell id="1xhdogJnt5Gqf_VvMB8D-4" value="c" style="ellipse;whiteSpace=wrap;html=1;" parent="1" vertex="1">
          <mxGeometry x="150" y="400" width="40" height="30" as="geometry" />
        </mxCell>
        <mxCell id="p_C5OVu5sG7Zl0YqylLV-5" style="edgeStyle=none;rounded=0;orthogonalLoop=1;jettySize=auto;html=1;exitX=1;exitY=0.5;exitDx=0;exitDy=0;entryX=0;entryY=0.5;entryDx=0;entryDy=0;" parent="1" source="1xhdogJnt5Gqf_VvMB8D-7" target="1xhdogJnt5Gqf_VvMB8D-19" edge="1">
          <mxGeometry relative="1" as="geometry" />
        </mxCell>
        <mxCell id="p_C5OVu5sG7Zl0YqylLV-40" style="edgeStyle=none;rounded=0;orthogonalLoop=1;jettySize=auto;html=1;exitX=1;exitY=0.5;exitDx=0;exitDy=0;entryX=0;entryY=0;entryDx=0;entryDy=0;" parent="1" source="1xhdogJnt5Gqf_VvMB8D-7" target="1xhdogJnt5Gqf_VvMB8D-48" edge="1">
          <mxGeometry relative="1" as="geometry" />
        </mxCell>
        <mxCell id="1xhdogJnt5Gqf_VvMB8D-7" value="K" style="ellipse;whiteSpace=wrap;html=1;" parent="1" vertex="1">
          <mxGeometry x="150" y="440" width="40" height="30" as="geometry" />
        </mxCell>
        <mxCell id="1xhdogJnt5Gqf_VvMB8D-8" style="edgeStyle=none;rounded=0;orthogonalLoop=1;jettySize=auto;html=1;exitX=1;exitY=0.5;exitDx=0;exitDy=0;entryX=0;entryY=0.5;entryDx=0;entryDy=0;" parent="1" source="1xhdogJnt5Gqf_VvMB8D-9" target="1xhdogJnt5Gqf_VvMB8D-19" edge="1">
          <mxGeometry relative="1" as="geometry">
            <mxPoint x="430" y="575" as="targetPoint" />
          </mxGeometry>
        </mxCell>
        <mxCell id="1xhdogJnt5Gqf_VvMB8D-9" value="N" style="ellipse;whiteSpace=wrap;html=1;" parent="1" vertex="1">
          <mxGeometry x="150" y="480" width="40" height="30" as="geometry" />
        </mxCell>
        <mxCell id="p_C5OVu5sG7Zl0YqylLV-30" style="edgeStyle=none;rounded=0;orthogonalLoop=1;jettySize=auto;html=1;exitX=1;exitY=0.5;exitDx=0;exitDy=0;entryX=0;entryY=0.5;entryDx=0;entryDy=0;" parent="1" source="1xhdogJnt5Gqf_VvMB8D-12" target="1xhdogJnt5Gqf_VvMB8D-17" edge="1">
          <mxGeometry relative="1" as="geometry" />
        </mxCell>
        <mxCell id="1xhdogJnt5Gqf_VvMB8D-12" value="Π_a" style="ellipse;whiteSpace=wrap;html=1;" parent="1" vertex="1">
          <mxGeometry x="590" y="890" width="53.33" height="40" as="geometry" />
        </mxCell>
        <mxCell id="p_C5OVu5sG7Zl0YqylLV-27" style="edgeStyle=none;rounded=0;orthogonalLoop=1;jettySize=auto;html=1;exitX=1;exitY=0.5;exitDx=0;exitDy=0;entryX=0;entryY=0.5;entryDx=0;entryDy=0;" parent="1" source="1xhdogJnt5Gqf_VvMB8D-15" target="p_C5OVu5sG7Zl0YqylLV-25" edge="1">
          <mxGeometry relative="1" as="geometry" />
        </mxCell>
        <mxCell id="1xhdogJnt5Gqf_VvMB8D-15" value="α" style="ellipse;whiteSpace=wrap;html=1;" parent="1" vertex="1">
          <mxGeometry x="320" y="860" width="30" height="30" as="geometry" />
        </mxCell>
        <mxCell id="1xhdogJnt5Gqf_VvMB8D-17" value="Y" style="ellipse;whiteSpace=wrap;html=1;" parent="1" vertex="1">
          <mxGeometry x="710" y="770" width="60" height="30" as="geometry" />
        </mxCell>
        <mxCell id="p_C5OVu5sG7Zl0YqylLV-36" style="edgeStyle=none;rounded=0;orthogonalLoop=1;jettySize=auto;html=1;exitX=0.5;exitY=1;exitDx=0;exitDy=0;entryX=0.5;entryY=0;entryDx=0;entryDy=0;" parent="1" source="1xhdogJnt5Gqf_VvMB8D-19" target="p_C5OVu5sG7Zl0YqylLV-35" edge="1">
          <mxGeometry relative="1" as="geometry" />
        </mxCell>
        <mxCell id="1xhdogJnt5Gqf_VvMB8D-19" value="g" style="ellipse;whiteSpace=wrap;html=1;" parent="1" vertex="1">
          <mxGeometry x="550" y="510" width="60" height="30" as="geometry" />
        </mxCell>
        <mxCell id="1xhdogJnt5Gqf_VvMB8D-22" style="edgeStyle=none;rounded=0;orthogonalLoop=1;jettySize=auto;html=1;exitX=1;exitY=0.5;exitDx=0;exitDy=0;entryX=0;entryY=0.5;entryDx=0;entryDy=0;" parent="1" source="1xhdogJnt5Gqf_VvMB8D-23" target="1xhdogJnt5Gqf_VvMB8D-4" edge="1">
          <mxGeometry relative="1" as="geometry" />
        </mxCell>
        <mxCell id="1xhdogJnt5Gqf_VvMB8D-23" value="&lt;div style=&quot;text-align: left;&quot;&gt;&lt;font face=&quot;Roboto, arial, sans-serif&quot;&gt;&lt;span style=&quot;font-size: 14px;&quot;&gt;prior&lt;/span&gt;&lt;/font&gt;&lt;br&gt;&lt;/div&gt;" style="ellipse;whiteSpace=wrap;html=1;" parent="1" vertex="1">
          <mxGeometry x="50" y="400" width="50" height="30" as="geometry" />
        </mxCell>
        <mxCell id="1xhdogJnt5Gqf_VvMB8D-28" style="edgeStyle=none;rounded=0;orthogonalLoop=1;jettySize=auto;html=1;exitX=1;exitY=0.5;exitDx=0;exitDy=0;entryX=0;entryY=0.5;entryDx=0;entryDy=0;" parent="1" source="1xhdogJnt5Gqf_VvMB8D-29" target="1xhdogJnt5Gqf_VvMB8D-7" edge="1">
          <mxGeometry relative="1" as="geometry" />
        </mxCell>
        <mxCell id="1xhdogJnt5Gqf_VvMB8D-29" value="&lt;div style=&quot;text-align: left;&quot;&gt;&lt;font face=&quot;Roboto, arial, sans-serif&quot;&gt;&lt;span style=&quot;font-size: 14px;&quot;&gt;prior&lt;/span&gt;&lt;/font&gt;&lt;/div&gt;" style="ellipse;whiteSpace=wrap;html=1;" parent="1" vertex="1">
          <mxGeometry x="50" y="440" width="50" height="30" as="geometry" />
        </mxCell>
        <mxCell id="p_C5OVu5sG7Zl0YqylLV-7" style="edgeStyle=none;rounded=0;orthogonalLoop=1;jettySize=auto;html=1;exitX=1;exitY=0.5;exitDx=0;exitDy=0;entryX=0;entryY=0.5;entryDx=0;entryDy=0;" parent="1" source="1xhdogJnt5Gqf_VvMB8D-48" target="1xhdogJnt5Gqf_VvMB8D-19" edge="1">
          <mxGeometry relative="1" as="geometry" />
        </mxCell>
        <mxCell id="p_C5OVu5sG7Zl0YqylLV-26" style="edgeStyle=none;rounded=0;orthogonalLoop=1;jettySize=auto;html=1;exitX=1;exitY=1;exitDx=0;exitDy=0;entryX=0;entryY=0.5;entryDx=0;entryDy=0;" parent="1" source="1xhdogJnt5Gqf_VvMB8D-48" target="p_C5OVu5sG7Zl0YqylLV-25" edge="1">
          <mxGeometry relative="1" as="geometry" />
        </mxCell>
        <mxCell id="1xhdogJnt5Gqf_VvMB8D-48" value="λ_i" style="ellipse;whiteSpace=wrap;html=1;" parent="1" vertex="1">
          <mxGeometry x="320" y="620" width="40" height="40" as="geometry" />
        </mxCell>
        <mxCell id="p_C5OVu5sG7Zl0YqylLV-10" style="edgeStyle=none;rounded=0;orthogonalLoop=1;jettySize=auto;html=1;exitX=1;exitY=0.5;exitDx=0;exitDy=0;entryX=0;entryY=0;entryDx=0;entryDy=0;" parent="1" source="p_C5OVu5sG7Zl0YqylLV-8" target="1xhdogJnt5Gqf_VvMB8D-48" edge="1">
          <mxGeometry relative="1" as="geometry" />
        </mxCell>
        <mxCell id="p_C5OVu5sG7Zl0YqylLV-8" value="a1" style="ellipse;whiteSpace=wrap;html=1;" parent="1" vertex="1">
          <mxGeometry x="180" y="560" width="30" height="30" as="geometry" />
        </mxCell>
        <mxCell id="p_C5OVu5sG7Zl0YqylLV-11" style="edgeStyle=none;rounded=0;orthogonalLoop=1;jettySize=auto;html=1;exitX=1;exitY=0.5;exitDx=0;exitDy=0;entryX=0;entryY=0;entryDx=0;entryDy=0;" parent="1" source="p_C5OVu5sG7Zl0YqylLV-9" target="1xhdogJnt5Gqf_VvMB8D-48" edge="1">
          <mxGeometry relative="1" as="geometry">
            <mxPoint x="260" y="670" as="targetPoint" />
          </mxGeometry>
        </mxCell>
        <mxCell id="p_C5OVu5sG7Zl0YqylLV-9" value="b1" style="ellipse;whiteSpace=wrap;html=1;" parent="1" vertex="1">
          <mxGeometry x="180" y="590" width="30" height="30" as="geometry" />
        </mxCell>
        <mxCell id="p_C5OVu5sG7Zl0YqylLV-13" style="edgeStyle=none;rounded=0;orthogonalLoop=1;jettySize=auto;html=1;exitX=1;exitY=0.5;exitDx=0;exitDy=0;entryX=0;entryY=0.5;entryDx=0;entryDy=0;" parent="1" source="p_C5OVu5sG7Zl0YqylLV-12" target="1xhdogJnt5Gqf_VvMB8D-48" edge="1">
          <mxGeometry relative="1" as="geometry" />
        </mxCell>
        <mxCell id="p_C5OVu5sG7Zl0YqylLV-12" value="η_i" style="ellipse;whiteSpace=wrap;html=1;" parent="1" vertex="1">
          <mxGeometry x="250" y="660" width="30" height="30" as="geometry" />
        </mxCell>
        <mxCell id="p_C5OVu5sG7Zl0YqylLV-19" style="edgeStyle=none;rounded=0;orthogonalLoop=1;jettySize=auto;html=1;exitX=1;exitY=0.5;exitDx=0;exitDy=0;entryX=0;entryY=0.5;entryDx=0;entryDy=0;" parent="1" source="p_C5OVu5sG7Zl0YqylLV-14" target="p_C5OVu5sG7Zl0YqylLV-12" edge="1">
          <mxGeometry relative="1" as="geometry" />
        </mxCell>
        <mxCell id="p_C5OVu5sG7Zl0YqylLV-14" value="ω" style="ellipse;whiteSpace=wrap;html=1;" parent="1" vertex="1">
          <mxGeometry x="150" y="690" width="30" height="30" as="geometry" />
        </mxCell>
        <mxCell id="p_C5OVu5sG7Zl0YqylLV-17" style="edgeStyle=none;rounded=0;orthogonalLoop=1;jettySize=auto;html=1;exitX=1;exitY=0.5;exitDx=0;exitDy=0;entryX=0;entryY=0.5;entryDx=0;entryDy=0;" parent="1" source="p_C5OVu5sG7Zl0YqylLV-15" target="p_C5OVu5sG7Zl0YqylLV-14" edge="1">
          <mxGeometry relative="1" as="geometry" />
        </mxCell>
        <mxCell id="p_C5OVu5sG7Zl0YqylLV-15" value="a2" style="ellipse;whiteSpace=wrap;html=1;" parent="1" vertex="1">
          <mxGeometry x="80" y="680" width="30" height="30" as="geometry" />
        </mxCell>
        <mxCell id="p_C5OVu5sG7Zl0YqylLV-18" style="edgeStyle=none;rounded=0;orthogonalLoop=1;jettySize=auto;html=1;exitX=1;exitY=0.5;exitDx=0;exitDy=0;entryX=0;entryY=0.5;entryDx=0;entryDy=0;" parent="1" source="p_C5OVu5sG7Zl0YqylLV-16" target="p_C5OVu5sG7Zl0YqylLV-14" edge="1">
          <mxGeometry relative="1" as="geometry" />
        </mxCell>
        <mxCell id="p_C5OVu5sG7Zl0YqylLV-16" value="b2" style="ellipse;whiteSpace=wrap;html=1;" parent="1" vertex="1">
          <mxGeometry x="80" y="710" width="30" height="30" as="geometry" />
        </mxCell>
        <mxCell id="p_C5OVu5sG7Zl0YqylLV-21" value="i \in {0..n-2}" style="text;html=1;align=center;verticalAlign=middle;whiteSpace=wrap;rounded=0;" parent="1" vertex="1">
          <mxGeometry x="250" y="800" width="70" height="30" as="geometry" />
        </mxCell>
        <mxCell id="p_C5OVu5sG7Zl0YqylLV-28" style="edgeStyle=none;rounded=0;orthogonalLoop=1;jettySize=auto;html=1;exitX=1;exitY=0.5;exitDx=0;exitDy=0;entryX=0;entryY=0.5;entryDx=0;entryDy=0;" parent="1" source="p_C5OVu5sG7Zl0YqylLV-25" target="1xhdogJnt5Gqf_VvMB8D-17" edge="1">
          <mxGeometry relative="1" as="geometry" />
        </mxCell>
        <mxCell id="p_C5OVu5sG7Zl0YqylLV-25" value="ρ_i" style="ellipse;whiteSpace=wrap;html=1;" parent="1" vertex="1">
          <mxGeometry x="480" y="720" width="40" height="40" as="geometry" />
        </mxCell>
        <mxCell id="p_C5OVu5sG7Zl0YqylLV-32" style="edgeStyle=none;rounded=0;orthogonalLoop=1;jettySize=auto;html=1;exitX=1;exitY=0.5;exitDx=0;exitDy=0;entryX=0;entryY=0.5;entryDx=0;entryDy=0;" parent="1" source="p_C5OVu5sG7Zl0YqylLV-31" target="1xhdogJnt5Gqf_VvMB8D-15" edge="1">
          <mxGeometry relative="1" as="geometry" />
        </mxCell>
        <mxCell id="p_C5OVu5sG7Zl0YqylLV-31" value="&lt;div style=&quot;text-align: left;&quot;&gt;&lt;font face=&quot;Roboto, arial, sans-serif&quot;&gt;&lt;span style=&quot;font-size: 14px;&quot;&gt;prior&lt;/span&gt;&lt;/font&gt;&lt;br&gt;&lt;/div&gt;" style="ellipse;whiteSpace=wrap;html=1;" parent="1" vertex="1">
          <mxGeometry x="230" y="860" width="50" height="30" as="geometry" />
        </mxCell>
        <mxCell id="p_C5OVu5sG7Zl0YqylLV-37" style="edgeStyle=none;rounded=0;orthogonalLoop=1;jettySize=auto;html=1;exitX=1;exitY=0.5;exitDx=0;exitDy=0;entryX=0;entryY=0.5;entryDx=0;entryDy=0;" parent="1" source="p_C5OVu5sG7Zl0YqylLV-35" target="1xhdogJnt5Gqf_VvMB8D-17" edge="1">
          <mxGeometry relative="1" as="geometry" />
        </mxCell>
        <mxCell id="p_C5OVu5sG7Zl0YqylLV-35" value="t_i" style="ellipse;whiteSpace=wrap;html=1;" parent="1" vertex="1">
          <mxGeometry x="550" y="630" width="60" height="30" as="geometry" />
        </mxCell>
        <mxCell id="p_C5OVu5sG7Zl0YqylLV-39" style="edgeStyle=none;rounded=0;orthogonalLoop=1;jettySize=auto;html=1;exitX=1;exitY=0.5;exitDx=0;exitDy=0;entryX=0;entryY=0.5;entryDx=0;entryDy=0;" parent="1" source="p_C5OVu5sG7Zl0YqylLV-38" target="1xhdogJnt5Gqf_VvMB8D-12" edge="1">
          <mxGeometry relative="1" as="geometry" />
        </mxCell>
        <mxCell id="p_C5OVu5sG7Zl0YqylLV-38" value="&lt;div style=&quot;text-align: left;&quot;&gt;&lt;font face=&quot;Roboto, arial, sans-serif&quot;&gt;&lt;span style=&quot;font-size: 14px;&quot;&gt;prior&lt;/span&gt;&lt;/font&gt;&lt;br&gt;&lt;/div&gt;" style="ellipse;whiteSpace=wrap;html=1;" parent="1" vertex="1">
          <mxGeometry x="510" y="895" width="50" height="30" as="geometry" />
        </mxCell>
        <mxCell id="Lwqe13KZtzVokiGsFX3p-1" value="ν" style="ellipse;whiteSpace=wrap;html=1;" vertex="1" parent="1">
          <mxGeometry x="450" y="400" width="40" height="30" as="geometry" />
        </mxCell>
      </root>
    </mxGraphModel>
  </diagram>
</mxfile>
